<svg xmlns="http://www.w3.org/2000/svg" viewBox="0 0 800 300" width="100%">
  <rect x="10" y="10" width="780" height="280" rx="20" fill="#FFF8DC" stroke="#E5253E" stroke-width="4"/>
  <rect x="10" y="10" width="780" height="50" rx="20" fill="#E5253E"/>
  <text x="40" y="45" font-family="monospace" font-size="20" fill="#FFF8DC" font-weight="bold">kitty@szabist:~$ cat id_card.txt</text>
  <text x="40" y="100" font-family="monospace" font-size="18" fill="#4A4A4A">
    <tspan x="40" dy="0">➜  <tspan fill="#E5253E" font-weight="bold">whoami</tspan>: Amina Asghar</tspan>
    <tspan x="40" dy="35">➜  <tspan fill="#E5253E" font-weight="bold">university</tspan>: SZABIST Islamabad</tspan>
    <tspan x="40" dy="35">➜  <tspan fill="#E5253E" font-weight="bold">department</tspan>: BS Artificial Intelligence</tspan>
    <tspan x="40" dy="35">➜  <tspan fill="#E5253E" font-weight="bold">stack</tspan>: Python, C++, Neural Nets, & Bows 🎀</tspan>
    <tspan x="40" dy="35">➜  <tspan fill="#E5253E" font-weight="bold">mission</tspan>: Conquering AI one cute commit at a time</tspan>
    <tspan x="40" dy="35">➜  <tspan fill="#E5253E" font-weight="bold">status</tspan>: <tspan fill="#FFB6C1">●</tspan> Online & Exploring</tspan>
  </text>
  <g transform="translate(650, 150) scale(0.6)">
    <path d="M40 20 C 30 0, 10 5, 10 20 Z" fill="#FFF" stroke="#000"/>
    <path d="M60 20 C 70 0, 90 5, 90 20 Z" fill="#FFF" stroke="#000"/>
    <path d="M50 10 C 70 10, 80 40, 80 60 C 80 90, 60 100, 50 100 C 40 100, 20 90, 20 60 C 20 40, 30 10, 50 10 Z" fill="#FFF" stroke="#000" stroke-width="2"/>
    <path d="M70 15 C 60 5, 50 10, 55 20 C 60 30, 75 25, 70 15 Z" fill="#E5253E"/>
    <ellipse cx="40" cy="55" rx="4" ry="6" fill="#000"/>
    <ellipse cx="60" cy="55" rx="4" ry="6" fill="#000"/>
    <ellipse cx="50" cy="65" rx="3" ry="2" fill="#FFC20E"/>
  </g>
</svg>
